<svg width="14" height="14" viewBox="0 0 14 14" fill="none" xmlns="http://www.w3.org/2000/svg">
  <path d="M12.3536 1.64663C11.4679 0.761016 10.0321 0.761019 9.14646 1.64664L4.89646 5.89664C4.84157 5.95152 4.80022 6.01844 4.77567 6.09207L3.52567 9.84207C3.46578 10.0217 3.51254 10.2198 3.64646 10.3537C3.78038 10.4877 3.97846 10.5344 4.15813 10.4745L7.90813 9.22453C7.98177 9.19998 8.04868 9.15863 8.10357 9.10374L12.3536 4.85374C13.2392 3.96813 13.2392 2.53225 12.3536 1.64663ZM10.9868 7.63468C10.9956 7.7554 11 7.8773 11 8.00024C11 10.7617 8.76142 13.0002 6 13.0002C3.23858 13.0002 1 10.7617 1 8.00024C1 5.23882 3.23858 3.00024 6 3.00024C6.12291 3.00024 6.24479 3.00468 6.36548 3.0134L7.24855 2.13033C6.8458 2.04509 6.42814 2.00024 6 2.00024C2.68629 2.00024 0 4.68654 0 8.00024C0 11.314 2.68629 14.0002 6 14.0002C9.31371 14.0002 12 11.314 12 8.00024C12 7.57208 11.9552 7.15439 11.8699 6.75162L10.9868 7.63468Z" fill="currentColor"/>
</svg>